<svg width="18" height="18" viewBox="0 0 18 18" fill="none" xmlns="http://www.w3.org/2000/svg">
<path d="M6.43431 3.47362C6.43431 3.36141 6.4499 3.11909 6.48106 2.74819C6.51457 2.37652 6.65482 1.98771 6.9065 1.57941C7.15584 1.17268 7.56024 0.807238 8.12281 0.483875C8.68305 0.162071 9.49262 0 10.5492 0H13.5257V3.24376H11.3463C11.1305 3.24376 10.9294 3.32479 10.7479 3.48452C10.5679 3.64426 10.4752 3.7962 10.4752 3.93723V5.95533H13.5249C13.493 6.35037 13.4579 6.73451 13.4174 7.10541L13.2966 8.08562C13.2483 8.41678 13.1992 8.72378 13.1509 9.00662H10.4534V18H6.43431V9.00584H4.47388V5.95533H6.43431V3.47362Z" fill="white"/>
</svg>
